<?xml version="1.0" encoding="UTF-8"?>
<svg xmlns="http://www.w3.org/2000/svg" xmlns:xlink="http://www.w3.org/1999/xlink" width="0" height="0">
    <symbol id="search" fill="none" viewBox="0 0 24 25">
        <path d="m21 21.68-4.343-4.43m0 0a8.172 8.172 0 0 0 1.734-2.647 8.301 8.301 0 0 0 0-6.246 8.172 8.172 0 0 0-1.734-2.647 7.992 7.992 0 0 0-2.595-1.769 7.865 7.865 0 0 0-6.123 0A7.992 7.992 0 0 0 5.343 5.71 8.244 8.244 0 0 0 3 11.48c0 2.164.843 4.24 2.343 5.77A7.922 7.922 0 0 0 11 19.64c2.122 0 4.157-.86 5.657-2.39Z" stroke="#fff" stroke-width="2" stroke-linecap="round" stroke-linejoin="round"/>
    </symbol>
    
    <symbol id="hamburger" fill="none" viewBox="0 0 26 26">
        <path d="M3.25 4.333h19.5V6.5H3.25V4.333Zm0 7.584h19.5v2.166H3.25v-2.166Zm0 7.583h19.5v2.167H3.25V19.5Z" fill="#fff"/>
    </symbol>
    
    <symbol id="close" fill="none" viewBox="0 0 19 19">
        <path d="M15.833 15.834 3.167 3.167m12.666 0L3.167 15.834" stroke="#000" stroke-width="2" stroke-linecap="round"/>
    </symbol>

    <symbol id="dots" fill="none" viewBox="0 0 24 24">
        <path d="M4.125 11.977a1.312 1.312 0 1 0 2.624 0 1.312 1.312 0 0 0-2.624 0Zm6.563 0a1.312 1.312 0 1 0 2.624 0 1.312 1.312 0 0 0-2.624 0Zm6.562 0a1.312 1.312 0 1 0 2.625 0 1.312 1.312 0 0 0-2.625 0Z" fill="#000"/>
    </symbol>
    
    <symbol id="edit" fill="none" viewBox="0 0 22 22">
        <path d="M17.499 13.237v4.07a2.172 2.172 0 0 1-2.172 2.171H4.693a2.172 2.172 0 0 1-2.171-2.184V6.672a2.16 2.16 0 0 1 2.172-2.173h4.07" stroke="#000" stroke-width="1.5" stroke-linecap="round" stroke-linejoin="round"/>
        <path d="m17.499 8.245-3.745-3.746m-7.489 9.987V12.5c.002-.327.132-.642.362-.873l8.738-8.738a1.247 1.247 0 0 1 1.773 0l1.971 1.972a1.247 1.247 0 0 1 0 1.772l-8.737 8.738c-.233.23-.546.36-.874.362H7.514a1.248 1.248 0 0 1-1.249-1.248Z" stroke="#000" stroke-width="1.5" stroke-linecap="round" stroke-linejoin="round"/>
    </symbol>
    
    <symbol id="reload" fill="none" viewBox="0 0 20 20">
        <path fill-rule="evenodd" clip-rule="evenodd" d="M2.467 10c0-3.78 2.946-7.533 7.533-7.533 3.704 0 5.536 2.741 6.316 4.2H14A.667.667 0 1 0 14 8h4a.667.667 0 0 0 .667-.666v-4a.667.667 0 1 0-1.334 0V5.75C16.395 4.095 14.221 1.134 10 1.134 4.583 1.134 1.133 5.58 1.133 10c0 4.42 3.45 8.866 8.867 8.866 2.592 0 4.75-1.027 6.285-2.59a9.026 9.026 0 0 0 1.904-2.889.666.666 0 1 0-1.233-.506 7.692 7.692 0 0 1-1.621 2.461c-1.295 1.32-3.115 2.19-5.335 2.19-4.587 0-7.533-3.753-7.533-7.533Z" fill="#000"/>
    </symbol>
    
    <symbol id="download" fill="none" viewBox="0 0 20 20">
        <path d="M.625 12.375A.625.625 0 0 1 1.25 13v3.125a1.25 1.25 0 0 0 1.25 1.25h15a1.25 1.25 0 0 0 1.25-1.25V13A.624.624 0 1 1 20 13v3.125a2.5 2.5 0 0 1-2.5 2.5h-15a2.5 2.5 0 0 1-2.5-2.5V13a.625.625 0 0 1 .625-.625Z" fill="#000"/>
        <path d="M9.557 14.818a.625.625 0 0 0 .885 0l3.75-3.75a.626.626 0 1 0-.885-.886l-2.682 2.684V1.875a.625.625 0 1 0-1.25 0v10.991l-2.683-2.684a.626.626 0 1 0-.885.886l3.75 3.75Z" fill="#000"/>
    </symbol>

  <symbol id="close-w" fill="none" viewBox="0 0 23 23">
    <path d="M19.166 19.167 3.833 3.833m15.333 0L3.833 19.167" stroke="#fff" stroke-width="2" stroke-linecap="round"/>
  </symbol>

  <symbol id="arrow-bottom-w" fill="none" viewBox="0 0 20 20">
    <path d="m10.453 13.275 6.637-6.966a.625.625 0 0 0 0-.863l-.007-.007a.575.575 0 0 0-.834 0l-6.25 6.56-6.248-6.56a.575.575 0 0 0-.833 0l-.008.007a.625.625 0 0 0 0 .863l6.638 6.966a.626.626 0 0 0 .905 0Z" fill="#fff"/>
  </symbol>
</svg>
