<svg width="20" height="21" viewBox="0 0 20 21" fill="none" xmlns="http://www.w3.org/2000/svg">
<path d="M19.0002 19.68L14.6572 15.2502M14.6572 15.2502C15.4001 14.4924 15.9894 13.5929 16.3914 12.6028C16.7935 11.6128 17.0004 10.5516 17.0004 9.48003C17.0004 8.40842 16.7935 7.3473 16.3914 6.35726C15.9894 5.36721 15.4001 4.46764 14.6572 3.70989C13.9143 2.95215 13.0324 2.35107 12.0618 1.94098C11.0911 1.53089 10.0508 1.31982 9.00021 1.31982C7.9496 1.31982 6.90929 1.53089 5.93866 1.94098C4.96803 2.35107 4.08609 2.95215 3.34321 3.70989C1.84288 5.24023 1 7.31581 1 9.48003C1 11.6443 1.84288 13.7198 3.34321 15.2502C4.84354 16.7805 6.87842 17.6402 9.00021 17.6402C11.122 17.6402 13.1569 16.7805 14.6572 15.2502Z" stroke="white" stroke-width="2" stroke-linecap="round" stroke-linejoin="round"/>
</svg>
